<svg xmlns="http://www.w3.org/2000/svg" width="300" height="300" viewBox="0 0 300 300"><rect width="100%" height="100%" fill="#1f1f1f"/><path fill="#7cff00" d="M57.625 154.1h4.62v1.78h-6.78v-11.57h2.16zm9.48-6.56q.91 0 1.66.3.74.3 1.28.84.53.54.82 1.33.28.78.28 1.75 0 .98-.28 1.76-.29.78-.82 1.34-.54.55-1.28.84-.75.3-1.66.3-.92 0-1.68-.3-.75-.29-1.28-.84-.53-.56-.82-1.34-.3-.78-.3-1.76 0-.97.3-1.75.29-.79.82-1.33t1.28-.84q.76-.3 1.68-.3m0 6.94q1.02 0 1.51-.69t.49-2.01q0-1.33-.49-2.03-.49-.69-1.51-.69-1.04 0-1.54.7t-.5 2.02.5 2.01 1.54.69m11.01-5.92-.45.71q-.08.13-.16.18-.09.05-.23.05t-.31-.08q-.16-.08-.38-.18-.21-.1-.49-.18-.27-.08-.65-.08-.58 0-.92.25-.33.25-.33.65 0 .26.17.44.18.18.46.32t.64.24q.36.11.74.24.37.13.73.29.36.17.64.42.29.25.46.6t.17.85q0 .59-.21 1.09t-.63.87q-.42.36-1.03.56-.61.21-1.41.21-.42 0-.83-.08-.4-.07-.77-.21-.38-.14-.69-.32-.32-.18-.56-.4l.46-.75q.09-.14.21-.21t.3-.07.35.1q.16.11.38.23.21.12.51.22.29.1.74.1.35 0 .6-.08t.42-.22q.16-.14.24-.32.07-.18.07-.37 0-.29-.17-.47t-.46-.32q-.28-.14-.64-.24-.37-.11-.75-.24t-.74-.3q-.37-.17-.65-.44-.28-.26-.46-.64-.17-.39-.17-.93 0-.51.2-.96.2-.46.59-.8t.97-.54q.58-.21 1.34-.21.85 0 1.54.28.7.28 1.16.74m4.31 7.45q-1.07 0-1.64-.61-.57-.6-.57-1.66v-4.59h-.84q-.16 0-.27-.1-.12-.11-.12-.31v-.79l1.32-.21.42-2.24q.04-.16.15-.25t.29-.09h1.02v2.58h2.2v1.41h-2.2v4.45q0 .38.19.6t.52.22q.18 0 .31-.05.12-.04.21-.09t.17-.09q.07-.05.14-.05.09 0 .14.05.06.04.12.13l.6.96q-.44.36-1 .54-.56.19-1.16.19m9.58-11.7v11.57h-2.16v-11.57zm3.98 3.72.14.65q.25-.25.52-.46.28-.21.59-.36t.66-.23q.35-.09.77-.09.67 0 1.19.23t.87.64q.34.41.52.99.18.57.18 1.26v5.22h-1.97v-5.22q0-.76-.35-1.17-.34-.41-1.04-.41-.52 0-.96.23-.45.23-.85.63v5.94h-1.98v-8.21h1.21q.38 0 .5.36m13.95 3.48h3.68l-1.41-3.85q-.1-.25-.22-.6-.11-.36-.22-.76-.1.4-.22.76-.11.36-.21.62zm2.93-7.2 4.55 11.57h-1.67q-.28 0-.45-.14-.18-.14-.27-.35l-.86-2.36h-4.79l-.87 2.36q-.06.19-.24.34-.19.15-.46.15h-1.68l4.55-11.57zm7.15 3.72.13.65q.25-.25.53-.46.27-.21.58-.36t.66-.23q.35-.09.77-.09.67 0 1.19.23t.87.64.53.99q.18.57.18 1.26v5.22h-1.98v-5.22q0-.76-.34-1.17-.35-.41-1.05-.41-.51 0-.96.23t-.85.63v5.94h-1.97v-8.21h1.2q.39 0 .51.36m10.94-.49q.91 0 1.66.3t1.28.84.82 1.33q.29.78.29 1.75 0 .98-.29 1.76t-.82 1.34q-.53.55-1.28.84-.75.3-1.66.3-.92 0-1.67-.3-.75-.29-1.28-.84-.54-.56-.83-1.34t-.29-1.76q0-.97.29-1.75.29-.79.83-1.33.53-.54 1.28-.84t1.67-.3m0 6.94q1.03 0 1.52-.69t.49-2.01q0-1.33-.49-2.03-.49-.69-1.52-.69-1.04 0-1.54.7t-.5 2.02.5 2.01 1.54.69m8.3 1.53q-1.07 0-1.65-.61-.57-.6-.57-1.66v-4.59h-.84q-.16 0-.27-.1-.11-.11-.11-.31v-.79l1.32-.21.41-2.24q.04-.16.16-.25.11-.09.28-.09h1.03v2.58h2.19v1.41h-2.19v4.45q0 .38.19.6.18.22.51.22.19 0 .31-.05.12-.04.22-.09l.16-.09q.07-.05.14-.05.09 0 .15.05.05.04.12.13l.59.96q-.43.36-.99.54-.56.19-1.16.19m5.19-12.02v4.56q.48-.45 1.06-.73.57-.28 1.35-.28.67 0 1.19.23t.87.64.53.99q.18.57.18 1.26v5.22h-1.98v-5.22q0-.76-.34-1.17-.35-.41-1.05-.41-.51 0-.96.23t-.85.63v5.94h-1.98v-11.89zm8.61 6.84h3.73q0-.38-.11-.72t-.33-.6q-.21-.25-.54-.4-.34-.15-.78-.15-.85 0-1.34.49-.5.49-.63 1.38m5.04 1.19h-5.08q.05.64.22 1.1.18.46.47.76.28.3.68.44.4.15.88.15t.82-.11q.35-.11.61-.25.26-.13.46-.25.19-.11.38-.11.25 0 .37.19l.56.72q-.32.38-.73.64t-.85.42q-.45.15-.91.22-.46.06-.89.06-.86 0-1.59-.28-.74-.29-1.28-.84-.55-.56-.86-1.38t-.31-1.9q0-.84.27-1.58t.78-1.29 1.24-.87 1.65-.32q.78 0 1.44.25.65.25 1.12.73.48.47.74 1.16.27.7.27 1.58 0 .45-.09.61-.1.15-.37.15m3.69-3.85.12.93q.38-.74.91-1.16t1.25-.42q.56 0 .91.25l-.13 1.48q-.04.14-.12.2-.07.06-.2.06-.12 0-.36-.04-.23-.04-.46-.04-.32 0-.58.1-.26.09-.46.27t-.36.44-.29.58v5.06h-1.98v-8.21h1.16q.31 0 .43.11t.16.39m18.69 1.93q0 1.27-.42 2.33-.43 1.07-1.19 1.83-.77.77-1.85 1.2-1.08.42-2.4.42h-4.41v-11.57h4.41q1.32 0 2.4.43t1.85 1.19q.76.77 1.19 1.83.42 1.06.42 2.34m-2.21 0q0-.96-.25-1.71-.25-.76-.73-1.28-.47-.53-1.15-.81-.67-.28-1.52-.28h-2.25v8.15h2.25q.85 0 1.52-.28.68-.28 1.15-.81.48-.52.73-1.28.25-.75.25-1.7m3.86-2.43h1.98v8.21h-1.98zm2.26-2.39q0 .26-.11.48-.1.22-.27.39-.18.17-.41.27t-.49.1-.49-.1-.39-.27q-.17-.17-.27-.39t-.1-.48.1-.5q.1-.23.27-.4.16-.16.39-.26t.49-.1.49.1.41.26q.17.17.27.4.11.24.11.5m3.72 10.6h-1.98v-8.21h1.21q.38 0 .5.36l.13.61q.22-.24.45-.44.24-.2.51-.34.26-.15.57-.23.31-.09.68-.09.77 0 1.27.42t.75 1.12q.19-.41.48-.7t.63-.48q.35-.18.74-.27.38-.09.78-.09.68 0 1.2.21.53.21.89.61t.55.98q.19.57.19 1.32v5.22h-1.98v-5.22q0-.79-.34-1.18-.35-.4-1.01-.4-.3 0-.56.1-.26.11-.46.3-.2.2-.31.5-.11.29-.11.68v5.22h-1.98v-5.22q0-.83-.34-1.2-.33-.38-.97-.38-.43 0-.8.21t-.69.58zm12.98-5.05h3.73q0-.38-.11-.72t-.32-.6q-.22-.25-.55-.4t-.77-.15q-.86 0-1.35.49t-.63 1.38m5.04 1.19h-5.08q.05.64.22 1.1.18.46.47.76t.68.44q.4.15.88.15t.83-.11q.34-.11.6-.25.26-.13.46-.25.2-.11.38-.11.25 0 .37.19l.57.72q-.33.38-.74.64t-.85.42q-.45.15-.91.22-.46.06-.89.06-.85 0-1.59-.28-.74-.29-1.28-.84-.54-.56-.86-1.38-.31-.82-.31-1.9 0-.84.27-1.58.28-.74.78-1.29.51-.55 1.24-.87.74-.32 1.66-.32.77 0 1.43.25.65.25 1.13.73.47.47.74 1.16.26.7.26 1.58 0 .45-.09.61-.1.15-.37.15m3.66-3.99.13.65q.25-.25.53-.46.27-.21.58-.36t.66-.23q.35-.09.77-.09.67 0 1.19.23t.87.64.53.99q.18.57.18 1.26v5.22h-1.98v-5.22q0-.76-.34-1.17-.35-.41-1.05-.41-.51 0-.96.23t-.85.63v5.94h-1.98v-8.21h1.21q.39 0 .51.36m12.76.53-.44.71q-.08.13-.17.18t-.23.05-.3-.08l-.38-.18q-.22-.1-.5-.18-.27-.08-.65-.08-.58 0-.91.25-.34.25-.34.65 0 .26.18.44.17.18.45.32.29.14.65.24.36.11.73.24t.73.29q.36.17.64.42.29.25.46.6t.17.85q0 .59-.21 1.09t-.63.87q-.41.36-1.03.56-.61.21-1.41.21-.42 0-.83-.08-.4-.07-.77-.21t-.69-.32-.56-.4l.46-.75q.09-.14.21-.21t.3-.07q.19 0 .35.1.16.11.38.23t.51.22.74.1q.35 0 .6-.08t.42-.22q.16-.14.24-.32.07-.18.07-.37 0-.29-.17-.47t-.45-.32q-.29-.14-.65-.24-.37-.11-.75-.24t-.74-.3-.65-.44q-.28-.26-.45-.64-.18-.39-.18-.93 0-.51.2-.96.2-.46.59-.8t.97-.54q.58-.21 1.34-.21.85 0 1.54.28.7.28 1.16.74m1.64-.89h1.99v8.21h-1.99zm2.26-2.39q0 .26-.1.48-.11.22-.28.39t-.4.27q-.24.1-.5.1t-.48-.1q-.23-.1-.4-.27t-.27-.39-.1-.48.1-.5q.1-.23.27-.4.17-.16.4-.26.22-.1.48-.1t.5.1q.23.1.4.26.17.17.28.4.1.24.1.5m5.38 2.26q.91 0 1.66.3.74.3 1.28.84.53.54.82 1.33.28.78.28 1.75 0 .98-.28 1.76-.29.78-.82 1.34-.54.55-1.28.84-.75.3-1.66.3-.92 0-1.68-.3-.75-.29-1.28-.84-.53-.56-.82-1.34-.3-.78-.3-1.76 0-.97.3-1.75.29-.79.82-1.33t1.28-.84q.76-.3 1.68-.3m0 6.94q1.02 0 1.51-.69t.49-2.01q0-1.33-.49-2.03-.49-.69-1.51-.69-1.04 0-1.54.7t-.5 2.02.5 2.01 1.54.69m7.27-6.45.13.65q.25-.25.53-.46.27-.21.58-.36t.66-.23q.35-.09.77-.09.67 0 1.19.23t.87.64.53.99q.18.57.18 1.26v5.22h-1.98v-5.22q0-.76-.34-1.17-.35-.41-1.05-.41-.51 0-.96.23t-.85.63v5.94h-1.97v-8.21h1.2q.39 0 .51.36"/></svg>